<mxfile host="app.diagrams.net" modified="2023-05-30T09:52:57.618Z" agent="Mozilla/5.0 (X11; Linux x86_64) AppleWebKit/537.36 (KHTML, like Gecko) Chrome/109.0.0.0 Safari/537.36 OPR/95.0.0.0" etag="xuUcbF0X4XIr8BomfOFq" version="21.3.2" type="github">
  <diagram name="Page-1" id="Hbo8vejhxmNi4c3qYDMk">
    <mxGraphModel dx="536" dy="792" grid="1" gridSize="10" guides="1" tooltips="1" connect="1" arrows="1" fold="1" page="1" pageScale="1" pageWidth="850" pageHeight="1100" math="0" shadow="0">
      <root>
        <mxCell id="0" />
        <mxCell id="1" parent="0" />
        <mxCell id="zSvVW19J5L1dlf0maK4m-2" value="" style="endArrow=none;html=1;rounded=0;" parent="1" edge="1">
          <mxGeometry width="50" height="50" relative="1" as="geometry">
            <mxPoint x="360" y="360" as="sourcePoint" />
            <mxPoint x="600" y="360" as="targetPoint" />
          </mxGeometry>
        </mxCell>
        <mxCell id="zSvVW19J5L1dlf0maK4m-3" value="" style="endArrow=none;html=1;rounded=0;" parent="1" edge="1">
          <mxGeometry width="50" height="50" relative="1" as="geometry">
            <mxPoint x="360" y="360" as="sourcePoint" />
            <mxPoint x="240" y="480" as="targetPoint" />
          </mxGeometry>
        </mxCell>
        <mxCell id="zSvVW19J5L1dlf0maK4m-6" value="" style="shape=cylinder3;whiteSpace=wrap;html=1;boundedLbl=1;backgroundOutline=1;size=15;" parent="1" vertex="1">
          <mxGeometry x="350" y="570" width="20" height="70" as="geometry" />
        </mxCell>
        <mxCell id="zSvVW19J5L1dlf0maK4m-9" value="" style="endArrow=classic;html=1;rounded=0;" parent="1" edge="1">
          <mxGeometry width="50" height="50" relative="1" as="geometry">
            <mxPoint x="360" y="360" as="sourcePoint" />
            <mxPoint x="360" y="320" as="targetPoint" />
          </mxGeometry>
        </mxCell>
        <mxCell id="zSvVW19J5L1dlf0maK4m-10" value="z" style="text;html=1;strokeColor=none;fillColor=none;align=center;verticalAlign=middle;whiteSpace=wrap;rounded=0;" parent="1" vertex="1">
          <mxGeometry x="330" y="280" width="60" height="30" as="geometry" />
        </mxCell>
        <mxCell id="zSvVW19J5L1dlf0maK4m-14" value="" style="endArrow=none;html=1;exitX=0;exitY=0.5;exitDx=0;exitDy=0;exitPerimeter=0;entryX=1;entryY=0.5;entryDx=0;entryDy=0;entryPerimeter=0;curved=1;" parent="1" source="zSvVW19J5L1dlf0maK4m-6" target="zSvVW19J5L1dlf0maK4m-6" edge="1">
          <mxGeometry width="50" height="50" relative="1" as="geometry">
            <mxPoint x="360" y="570" as="sourcePoint" />
            <mxPoint x="410" y="520" as="targetPoint" />
            <Array as="points">
              <mxPoint x="360" y="620" />
            </Array>
          </mxGeometry>
        </mxCell>
        <mxCell id="zSvVW19J5L1dlf0maK4m-15" value="" style="endArrow=none;html=1;exitX=0;exitY=0.5;exitDx=0;exitDy=0;exitPerimeter=0;entryX=1;entryY=0.5;entryDx=0;entryDy=0;entryPerimeter=0;curved=1;" parent="1" edge="1">
          <mxGeometry width="50" height="50" relative="1" as="geometry">
            <mxPoint x="350" y="615" as="sourcePoint" />
            <mxPoint x="370" y="615" as="targetPoint" />
            <Array as="points">
              <mxPoint x="360" y="630" />
            </Array>
          </mxGeometry>
        </mxCell>
        <mxCell id="zSvVW19J5L1dlf0maK4m-16" value="" style="endArrow=none;html=1;exitX=0;exitY=0.5;exitDx=0;exitDy=0;exitPerimeter=0;entryX=1;entryY=0.5;entryDx=0;entryDy=0;entryPerimeter=0;curved=1;" parent="1" edge="1">
          <mxGeometry width="50" height="50" relative="1" as="geometry">
            <mxPoint x="350" y="625" as="sourcePoint" />
            <mxPoint x="370" y="625" as="targetPoint" />
            <Array as="points">
              <mxPoint x="360" y="640" />
            </Array>
          </mxGeometry>
        </mxCell>
        <mxCell id="zSvVW19J5L1dlf0maK4m-17" value="" style="endArrow=none;html=1;exitX=0;exitY=0.5;exitDx=0;exitDy=0;exitPerimeter=0;entryX=1;entryY=0.5;entryDx=0;entryDy=0;entryPerimeter=0;curved=1;" parent="1" edge="1">
          <mxGeometry width="50" height="50" relative="1" as="geometry">
            <mxPoint x="350" y="597.5" as="sourcePoint" />
            <mxPoint x="370" y="597.5" as="targetPoint" />
            <Array as="points">
              <mxPoint x="360" y="612.5" />
            </Array>
          </mxGeometry>
        </mxCell>
        <mxCell id="zSvVW19J5L1dlf0maK4m-18" value="" style="endArrow=none;html=1;exitX=0;exitY=0.5;exitDx=0;exitDy=0;exitPerimeter=0;entryX=1;entryY=0.5;entryDx=0;entryDy=0;entryPerimeter=0;curved=1;" parent="1" edge="1">
          <mxGeometry width="50" height="50" relative="1" as="geometry">
            <mxPoint x="350" y="610" as="sourcePoint" />
            <mxPoint x="370" y="610" as="targetPoint" />
            <Array as="points">
              <mxPoint x="360" y="625" />
            </Array>
          </mxGeometry>
        </mxCell>
        <mxCell id="zSvVW19J5L1dlf0maK4m-19" value="" style="endArrow=none;html=1;exitX=0;exitY=0.5;exitDx=0;exitDy=0;exitPerimeter=0;entryX=1;entryY=0.5;entryDx=0;entryDy=0;entryPerimeter=0;curved=1;" parent="1" edge="1">
          <mxGeometry width="50" height="50" relative="1" as="geometry">
            <mxPoint x="350" y="620" as="sourcePoint" />
            <mxPoint x="370" y="620" as="targetPoint" />
            <Array as="points">
              <mxPoint x="360" y="635" />
            </Array>
          </mxGeometry>
        </mxCell>
        <mxCell id="zSvVW19J5L1dlf0maK4m-1" value="" style="endArrow=none;html=1;rounded=0;" parent="1" edge="1">
          <mxGeometry width="50" height="50" relative="1" as="geometry">
            <mxPoint x="360" y="590" as="sourcePoint" />
            <mxPoint x="360" y="360" as="targetPoint" />
          </mxGeometry>
        </mxCell>
        <mxCell id="zSvVW19J5L1dlf0maK4m-22" value="" style="endArrow=none;html=1;rounded=1;" parent="1" edge="1">
          <mxGeometry width="50" height="50" relative="1" as="geometry">
            <mxPoint x="350" y="370" as="sourcePoint" />
            <mxPoint x="380" y="360" as="targetPoint" />
            <Array as="points">
              <mxPoint x="370" y="370" />
            </Array>
          </mxGeometry>
        </mxCell>
        <mxCell id="zSvVW19J5L1dlf0maK4m-26" value="φ" style="text;html=1;align=center;verticalAlign=middle;resizable=0;points=[];autosize=1;strokeColor=none;fillColor=none;" parent="1" vertex="1">
          <mxGeometry x="360" y="360" width="30" height="30" as="geometry" />
        </mxCell>
        <mxCell id="zSvVW19J5L1dlf0maK4m-28" value="" style="endArrow=classic;html=1;rounded=0;" parent="1" edge="1">
          <mxGeometry width="50" height="50" relative="1" as="geometry">
            <mxPoint x="360" y="360" as="sourcePoint" />
            <mxPoint x="240" y="480" as="targetPoint" />
          </mxGeometry>
        </mxCell>
        <mxCell id="zSvVW19J5L1dlf0maK4m-29" value="" style="endArrow=classic;html=1;rounded=0;" parent="1" edge="1">
          <mxGeometry width="50" height="50" relative="1" as="geometry">
            <mxPoint x="360" y="360" as="sourcePoint" />
            <mxPoint x="600" y="360" as="targetPoint" />
          </mxGeometry>
        </mxCell>
        <mxCell id="zSvVW19J5L1dlf0maK4m-30" value="" style="endArrow=none;html=1;rounded=0;" parent="1" edge="1">
          <mxGeometry width="50" height="50" relative="1" as="geometry">
            <mxPoint x="360" y="590" as="sourcePoint" />
            <mxPoint x="550" y="410" as="targetPoint" />
          </mxGeometry>
        </mxCell>
        <mxCell id="zSvVW19J5L1dlf0maK4m-31" value="" style="endArrow=none;html=1;rounded=0;" parent="1" edge="1">
          <mxGeometry width="50" height="50" relative="1" as="geometry">
            <mxPoint x="360" y="360" as="sourcePoint" />
            <mxPoint x="550" y="410" as="targetPoint" />
          </mxGeometry>
        </mxCell>
        <mxCell id="zSvVW19J5L1dlf0maK4m-33" value="" style="endArrow=none;html=1;rounded=1;" parent="1" edge="1">
          <mxGeometry width="50" height="50" relative="1" as="geometry">
            <mxPoint x="360" y="560" as="sourcePoint" />
            <mxPoint x="380" y="570" as="targetPoint" />
            <Array as="points">
              <mxPoint x="370" y="560" />
            </Array>
          </mxGeometry>
        </mxCell>
        <mxCell id="zSvVW19J5L1dlf0maK4m-34" value="θ" style="text;html=1;align=center;verticalAlign=middle;resizable=0;points=[];autosize=1;strokeColor=none;fillColor=none;" parent="1" vertex="1">
          <mxGeometry x="360" y="540" width="30" height="30" as="geometry" />
        </mxCell>
        <mxCell id="zSvVW19J5L1dlf0maK4m-35" value="" style="endArrow=classic;html=1;rounded=0;" parent="1" edge="1">
          <mxGeometry width="50" height="50" relative="1" as="geometry">
            <mxPoint x="550" y="410" as="sourcePoint" />
            <mxPoint x="580" y="410" as="targetPoint" />
          </mxGeometry>
        </mxCell>
        <mxCell id="zSvVW19J5L1dlf0maK4m-36" value="" style="endArrow=classic;html=1;rounded=0;" parent="1" edge="1">
          <mxGeometry width="50" height="50" relative="1" as="geometry">
            <mxPoint x="550" y="410" as="sourcePoint" />
            <mxPoint x="570" y="390" as="targetPoint" />
          </mxGeometry>
        </mxCell>
        <mxCell id="zSvVW19J5L1dlf0maK4m-37" value="" style="endArrow=classic;html=1;rounded=0;" parent="1" edge="1">
          <mxGeometry width="50" height="50" relative="1" as="geometry">
            <mxPoint x="550" y="410" as="sourcePoint" />
            <mxPoint x="570" y="430" as="targetPoint" />
          </mxGeometry>
        </mxCell>
        <mxCell id="zSvVW19J5L1dlf0maK4m-38" value="y" style="text;html=1;align=center;verticalAlign=middle;resizable=0;points=[];autosize=1;strokeColor=none;fillColor=none;" parent="1" vertex="1">
          <mxGeometry x="470" y="330" width="30" height="30" as="geometry" />
        </mxCell>
        <mxCell id="zSvVW19J5L1dlf0maK4m-39" value="x" style="text;html=1;align=center;verticalAlign=middle;resizable=0;points=[];autosize=1;strokeColor=none;fillColor=none;" parent="1" vertex="1">
          <mxGeometry x="290" y="390" width="30" height="30" as="geometry" />
        </mxCell>
        <mxCell id="zSvVW19J5L1dlf0maK4m-40" value="M" style="text;html=1;align=center;verticalAlign=middle;resizable=0;points=[];autosize=1;strokeColor=none;fillColor=none;" parent="1" vertex="1">
          <mxGeometry x="325" y="560" width="30" height="30" as="geometry" />
        </mxCell>
        <mxCell id="zSvVW19J5L1dlf0maK4m-41" value="z&lt;sub&gt;0&lt;/sub&gt;" style="text;html=1;align=center;verticalAlign=middle;resizable=0;points=[];autosize=1;strokeColor=none;fillColor=none;" parent="1" vertex="1">
          <mxGeometry x="320" y="598" width="40" height="30" as="geometry" />
        </mxCell>
        <mxCell id="zSvVW19J5L1dlf0maK4m-42" value="H&lt;sub&gt;θ&lt;/sub&gt;" style="text;html=1;align=center;verticalAlign=middle;resizable=0;points=[];autosize=1;strokeColor=none;fillColor=none;" parent="1" vertex="1">
          <mxGeometry x="557" y="421" width="40" height="30" as="geometry" />
        </mxCell>
        <mxCell id="zSvVW19J5L1dlf0maK4m-43" value="&lt;font style=&quot;font-size: 15px;&quot;&gt;H&lt;/font&gt;" style="text;html=1;align=center;verticalAlign=middle;resizable=0;points=[];autosize=1;strokeColor=none;fillColor=none;" parent="1" vertex="1">
          <mxGeometry x="572" y="394" width="30" height="30" as="geometry" />
        </mxCell>
        <mxCell id="zSvVW19J5L1dlf0maK4m-44" value="H&lt;sub&gt;r&lt;/sub&gt;" style="text;html=1;align=center;verticalAlign=middle;resizable=0;points=[];autosize=1;strokeColor=none;fillColor=none;" parent="1" vertex="1">
          <mxGeometry x="555" y="370" width="40" height="30" as="geometry" />
        </mxCell>
        <mxCell id="WnX8x1JsVqQh0imNCdh0-1" value="Transmitting antenna" style="text;html=1;align=center;verticalAlign=middle;resizable=0;points=[];autosize=1;strokeColor=none;fillColor=none;horizontal=1;fontSize=16;" vertex="1" parent="1">
          <mxGeometry x="365" y="598" width="170" height="30" as="geometry" />
        </mxCell>
      </root>
    </mxGraphModel>
  </diagram>
</mxfile>
